# xmcd
#
# Track frame offsets:
#	150
#	14857
#	29614
#	48915
#	69751
#	81927
#	95707
#	110246
#	120725
#	130633
#	143714
#	165009
#	179769
#	196288
#	213832
#	227334
#	238262
#	250604
#
# Disc length: 3483 seconds
#
# Revision: 1
# Processed by: cddbd v1.5.2PL0 Copyright (c) Steve Scherf et al.
# Submitted via: audiograbber 1.83.01
#
DISCID=f60d9912
DTITLE=Various Artist - Negro Spirituals disk 1
DYEAR=1999
DGENRE=Gospel
TTITLE0=Marian Anderson - Deep River
TTITLE1=Marian Anderson - My Lord, What A Morning
TTITLE2=Marian Anderson - a) Lord, I Can't Stand Away  b) Heav'n, Heav'n
TTITLE3=Marian Anderson - Crucifixion
TTITLE4=Jules Bledsoe - Swing Low, Sweet Chariot
TTITLE5=Ellabelle Davis - I Stood On De Ribber Ob Jordan
TTITLE6=Evelyn Dove - Couldn't Hear Nobody Pray
TTITLE7=Roland Hayes - Go Down Moses
TTITLE8=Roland Hayes - Lit'l Boy (Christ In The Temple Before The Scribes)
TTITLE9=Roland Hayes - 'Roun' 'Bout De Mountain
TTITLE10=Roland Hayes - a) Hear De Lambs A Cryin'  b) Plenty Good Room
TTITLE11=Dorothy Maynor - Nobody Knows The Trouble I've Seen
TTITLE12=Dorothy Maynor - Steal Away To Jesus
TTITLE13=John Payne - a) Go Down, Moses  b) Deep River
TTITLE14=Paul Robeson - Sometimes I Feel Like A Motherless Child
TTITLE15=Paul Robeson - Witness
TTITLE16=Paul Robeson - Were You There?
TTITLE17=Paul Robeson - a) De Ole Ark's A-Movering  b) Ezekiel Saw De Wheel
EXTD=
EXTT0=
EXTT1=
EXTT2=
EXTT3=
EXTT4=
EXTT5=
EXTT6=
EXTT7=
EXTT8=
EXTT9=
EXTT10=
EXTT11=
EXTT12=
EXTT13=
EXTT14=
EXTT15=
EXTT16=
EXTT17=
PLAYORDER=
